# AST/ASF file generated using VICON BodyLanguage
# -----------------------------------------------
:version 1.10
:name VICON
:units
  mass 1.0
  length 0.45
  angle deg
:documentation
   .ast/.asf automatically generated from VICON data using
   VICON BodyBuilder and BodyLanguage model FoxedUp or BRILLIANT.MOD
:root
   order TX TY TZ RX RY RZ
   axis XYZ
   position 0 0 0  
   orientation 0 0 0 
:bonedata
  begin
     id 1 
     name lhipjoint
     direction 0.627457 -0.725269 0.283342 
     length 2.53237 
     axis 0 0 0  XYZ
  end
  begin
     id 2 
     name lfemur
     direction 0.34202 -0.939693 0  
     length 7.32496  
     axis 0 0 20  XYZ
    dof rx ry rz
    limits (-160.0 20.0)
           (-70.0 70.0)
           (-60.0 70.0)
  end
  begin
     id 3 
     name ltibia
     direction 0.34202 -0.939693 0   
     length 7.69674   
     axis 0 0 20   XYZ
    dof rx
    limits (-10.0 170.0)
  end
  begin
     id 4 
     name lfoot
     direction 0.127289 -0.349722 0.928166   
     length 1.8612   
     axis -90 7.62852e-016 20   XYZ
    dof rx rz
    limits (-45.0 90.0)
           (-70.0 20.0)
  end
  begin
     id 5 
     name ltoes
     direction 1.53561e-011 -4.21864e-011 1   
     length 0.925608   
     axis -90 7.62852e-016 20   XYZ
    dof rx
    limits (-90.0 20.0)
  end
  begin
     id 6 
     name rhipjoint
     direction -0.609094 -0.738725 0.288599   
     length 2.48624  
     axis 0 0 0  XYZ 
  end
  begin
     id 7 
     name rfemur
     direction -0.34202 -0.939693 0   
     length 7.44259   
     axis 0 0 -20   XYZ
    dof rx ry rz
    limits (-160.0 20.0)
           (-70.0 70.0)
           (-70.0 60.0)
  end
  begin
     id 8 
     name rtibia
     direction -0.34202 -0.939693 0   
     length 7.7781   
     axis 0 0 -20   XYZ
    dof rx
    limits (-10.0 170.0)
 end
 begin
     id 9 
     name rfoot
     direction -0.107015 -0.294021 0.949789   
     length 2.14741  
     axis -90 -7.62852e-016 -20   XYZ
    dof rx rz
    limits (-45.0 90.0)
           (-20.0 70.0)
  end
  begin
     id 10 
     name rtoes
     direction -1.53497e-011 -4.21924e-011 1   
     length 1.0706   
     axis -90 -7.62852e-016 -20   XYZ
    dof rx
    limits (-90.0 20.0)
  end
  begin
     id 11 
     name lowerback
     direction -0.0142066 0.998112 -0.0597545   
     length 1.86627   
     axis 0 0 0   XYZ
    dof rx ry rz
    limits (-20.0 45.0)
           (-30.0 30.0)
           (-30.0 30.0)
  end
  begin
     id 12 
     name upperback
     direction 0.00547294 0.999744 0.0219437   
     length 1.86272   
     axis 0 0 0   XYZ
    dof rx ry rz
    limits (-20.0 45.0)
           (-30.0 30.0)
           (-30.0 30.0)
  end
  begin
     id 13 
     name thorax
     direction 0.0116162 0.998704 0.0495538   
     length 1.8703   
     axis 0 0 0   XYZ
    dof rx ry rz
    limits (-20.0 45.0)
           (-30.0 30.0)
           (-30.0 30.0)
  end
  begin
     id 14 
     name lowerneck
     direction -0.0106574 0.998739 0.0490586   
     length 1.8074   
     axis 0 0 0   XYZ
    dof rx ry rz
    limits (-20.0 45.0)
           (-30.0 30.0)
           (-30.0 30.0)
  end
  begin
     id 15 
     name upperneck
     direction 0.030527 0.976587 -0.212944   
     length 1.80681   
     axis 0 0 0   XYZ
    dof rx ry rz
    limits (-20.0 45.0)
           (-30.0 30.0)
           (-30.0 30.0)
  end
  begin
     id 16
     name head
     direction 0.00869225 0.997035 -0.0764531  
     length 1.8313  
     axis 0 0 0   XYZ
    dof rx ry rz
    limits (-20.0 45.0)
           (-30.0 30.0)
           (-30.0 30.0)
  end
  begin
     id 17 
     name lclavicle
     direction 0.915958 0.399447 0.0382386  
     length 3.78965  
     axis 0 0 0   XYZ
    dof ry rz
    limits (-20.0 10.0)
           (0.0 20.0)
  end
  begin
     id 18 
     name lhumerus
     direction 1 -4.48967e-011 3.19303e-027   
     length 4.78095   
     axis -180 -30 -90   XYZ
    dof rx ry rz
    limits (-60.0 90.0)
           (-90.0 90.0)
           (-90.0 90.0)
  end
  begin
     id 19
     name lradius
     direction 1 -4.48967e-011 -3.77974e-027   
     length 3.58615   
     axis -180 -30 -90   XYZ
    dof rx
    limits (-10.0 170.0)
  end
  begin
     id 20
     name lwrist
     direction 1 -4.48927e-011 1.2807e-027   
     length 1.79307   
     axis 1.91374e-015 90 90   XYZ
    dof ry
    limits (-180.0 0.0)
 end
  begin
     id 21 
     name lhand
     direction 1 -4.49036e-011 2.5614e-027   
     length 0.659812   
     axis -1.63439e-015 90 90   XYZ
    dof rx rz
    limits (-90.0 90.0)
           (-45.0 45.0)
  end
  begin
     id 22 
     name lfingers
     direction 1 -4.49052e-011 5.1228e-027   
     length 0.531957   
     axis -3.26879e-015 90 90   XYZ
    dof rx
    limits (0.0 90.0)
  end
  begin
     id 23
     name lthumb
     direction 0.707107 -6.35012e-011 0.707107   
     length 0.763787   
     axis -90 45 2.85299e-015   XYZ
    dof rx rz
    limits (-45.0 45.0)
           (-45.0 45.0)
  end
  begin
     id 24 
     name rclavicle
     direction -0.895351 0.435135 0.0948887   
     length 3.70497  
     axis 0 0 0   XYZ 
    dof ry rz
    limits (-10.0 20.0)
           (-20.0 0.0)
  end
  begin
     id 25 
     name rhumerus
     direction -1 -4.48971e-011 2.38946e-027  
     length 4.48913   
     axis -180 30 90   XYZ
    dof rx ry rz
    limits (-90.0 60.0)
           (-90.0 90.0)
           (-90.0 90.0)
  end
  begin
     id 26 
     name rradius
     direction -1 -4.4895e-011 4.38668e-027   
     length 3.7051   
     axis -180 30 90   XYZ
    dof rx
    limits (-10.0 170.0)
  end
  begin
     id 27 
     name rwrist
     direction -1 -4.49007e-011 1.2807e-027   
     length 1.85255   
     axis 1.91374e-015 -90 -90   XYZ
    dof ry
    limits (-180.0 0.0)
  end
  begin
     id 28
     name rhand
     direction -1 -4.48851e-011 2.5614e-027   
     length 0.449136   
     axis -1.63439e-015 -90 -90   XYZ
    dof rx rz
    limits (-90.0 90.0)
           (-45.0 45.0)
  end
  begin
     id 29
     name rfingers
     direction -1 -4.49128e-011 5.1228e-027   
     length 0.362105   
     axis -3.26879e-015 -90 -90   XYZ
    dof rx
    limits (0.0 90.0)
  end
  begin
     id 30
     name rthumb
     direction -0.707107 -6.34851e-011 0.707107   
     length 0.519912   
     axis -90 -45 -2.85299e-015   XYZ
    dof rx rz
    limits (-45.0 45.0)
           (-45.0 45.0)
  end
:hierarchy
  begin
    root lhipjoint rhipjoint lowerback
    lhipjoint lfemur
    lfemur ltibia
    ltibia lfoot
    lfoot ltoes
    rhipjoint rfemur
    rfemur rtibia
    rtibia rfoot
    rfoot rtoes
    lowerback upperback
    upperback thorax
    thorax lowerneck lclavicle rclavicle
    lowerneck upperneck
    upperneck head
    lclavicle lhumerus
    lhumerus lradius
    lradius lwrist
    lwrist lhand lthumb
    lhand lfingers
    rclavicle rhumerus
    rhumerus rradius
    rradius rwrist
    rwrist rhand rthumb
    rhand rfingers
  end

#!OML:ASF I:\Actors\actors\Patient Classification 2\Patient 1\Session 1\actor1.ASF
:FULLY-SPECIFIED
:DEGREES
44
root -0.661897 18.6798 5.7857 2.56734 -3.38175 -1.69458
lowerback 0.482002 1.41893 -0.0759101
upperback -1.65535 1.88864 -0.180436
thorax -1.96192 0.94314 -0.183503
lowerneck -11.5436 -2.62588 -0.782743
upperneck 25.0656 -4.30234 2.88064
head 9.93588 -1.74555 0.627754
rclavicle -1.22222e-014 3.18055e-015
rhumerus -49.8318 -3.59736 -86.9483
rradius 44.0948
rwrist 12.77
rhand -10.3163 -30.094
rfingers 7.12502
rthumb 15.679 -59.4787
lclavicle -1.22222e-014 3.18055e-015
lhumerus -40.5563 0.632598 90.3289
lradius 36.8862
lwrist -11.9285
lhand -3.11047 -24.994
lfingers 7.12502
lthumb 22.6079 3.70208
rfemur 0 0 0
rtibia 0
rfoot 0 0
rtoes 0
lfemur -3.48902 -6.47226 -13.0457
ltibia 20.683
lfoot -26.0527 18.5143
ltoes -53.9725
45
root -0.661481 18.6789 5.7872 2.5962 -3.38914 -1.68146
lowerback 0.422256 1.41934 -0.0846115
upperback -1.65541 1.88888 -0.197263
thorax -1.92814 0.943296 -0.194198
lowerneck -11.5434 -2.63348 -0.766487
upperneck 25.0793 -4.31562 2.87396
head 9.94054 -1.75077 0.621051
rclavicle 5.684e-016 -1.03368e-014
rhumerus -49.8435 -3.60718 -86.9751
rradius 44.1112
rwrist 12.7514
rhand -10.3295 -30.0167
rfingers 7.12502
rthumb 15.6664 -59.4025
lclavicle 5.684e-016 -1.03368e-014
lhumerus -40.5753 0.644583 90.3054
lradius 36.8817
lwrist -11.9798
lhand -3.1681 -25.0695
lfingers 7.12502
lthumb 22.5526 3.63328
rfemur 0 0 0
rtibia 0
rfoot 0 0
rtoes 0
lfemur -3.51591 -6.50853 -13.0647
ltibia 20.6836
lfoot -26.0725 18.5396
ltoes -53.9335
46
root -0.661296 18.6787 5.78771 2.61233 -3.38068 -1.68221
lowerback 0.410935 1.41031 -0.0879008
upperback -1.66044 1.87676 -0.199118
thorax -1.92701 0.93728 -0.193776
lowerneck -11.5214 -2.62799 -0.77843
upperneck 25.0561 -4.30961 2.89452
head 9.9286 -1.74743 0.631307
rclavicle 9.37394e-015 -5.96354e-015
rhumerus -49.8546 -3.57921 -87.0092
rradius 44.128
rwrist 12.7126
rhand -10.2916 -30.1201
rfingers 7.12502
rthumb 15.7028 -59.503
lclavicle 9.37394e-015 -5.96354e-015
lhumerus -40.5876 0.686553 90.2871
lradius 36.8874
lwrist -12.0141
lhand -3.14078 -25.0956
lfingers 7.12502
lthumb 22.5788 3.60403
rfemur 0 0 0
rtibia 0
rfoot 0 0
rtoes 0
lfemur -3.53776 -6.50999 -13.061
ltibia 20.691
lfoot -26.0736 18.5334
ltoes -53.9175
47
root -0.661142 18.6788 5.78819 2.61059 -3.38551 -1.71032
lowerback 0.419074 1.40944 -0.0614814
upperback -1.6539 1.87607 -0.193113
thorax -1.92421 0.936581 -0.202496
lowerneck -11.5163 -2.61988 -0.769949
upperneck 25.0397 -4.29754 2.88784
head 9.92111 -1.7421 0.629076
rclavicle 1.12531e-014 3.18055e-015
rhumerus -49.8485 -3.56518 -87.0289
rradius 44.1223
rwrist 12.6849
rhand -10.2715 -30.1824
rfingers 7.12502
rthumb 15.7222 -59.5637
lclavicle 1.12531e-014 3.18055e-015
lhumerus -40.5907 0.681241 90.2968
lradius 36.9134
lwrist -11.9945
lhand -3.09691 -25.0383
lfingers 7.12502
lthumb 22.621 3.65615
rfemur 0 0 0
rtibia 0
rfoot 0 0
rtoes 0
lfemur -3.54161 -6.50685 -13.0287
ltibia 20.7093
lfoot -26.1002 18.5362
ltoes -53.8755
48
root -0.660607 18.6795 5.78951 2.60983 -3.40742 -1.75403
lowerback 0.416147 1.41759 -0.00384463
upperback -1.64918 1.88771 -0.19754
thorax -1.91568 0.941474 -0.239316
lowerneck -11.5092 -2.61406 -0.731531
upperneck 25.0335 -4.29224 2.86754
head 9.91601 -1.73853 0.616228
rclavicle 2.35467e-014 -8.74653e-015
rhumerus -49.8594 -3.59692 -87.0542
rradius 44.1079
rwrist 12.7014
rhand -10.3407 -30.1422
rfingers 7.12502
rthumb 15.6556 -59.5288
lclavicle 2.35467e-014 -8.74653e-015
lhumerus -40.599 0.639301 90.3044
lradius 36.9267
lwrist -11.9396
lhand -3.13257 -24.9447
lfingers 7.12502
lthumb 22.5867 3.75391
rfemur 0 0 0
rtibia 0
rfoot 0 0
rtoes 0
lfemur -3.54531 -6.49498 -12.9842
ltibia 20.7374
lfoot -26.1482 18.5242
ltoes -53.8242
49
root -0.659874 18.68 5.79146 2.60663 -3.4321 -1.76506
lowerback 0.403602 1.42567 0.0193322
upperback -1.64272 1.89868 -0.206327
thorax -1.90092 0.946553 -0.26102
lowerneck -11.5047 -2.61322 -0.739861
upperneck 25.0278 -4.29675 2.89734
head 9.91419 -1.73818 0.627566
rclavicle 1.57226e-014 5.56597e-015
rhumerus -49.8748 -3.61429 -87.0827
rradius 44.1137
rwrist 12.6956
rhand -10.379 -30.2008
rfingers 7.12502
rthumb 15.6186 -59.5902
lclavicle 1.57226e-014 5.56597e-015
lhumerus -40.6073 0.648728 90.2993
lradius 36.9336
lwrist -11.9309
lhand -3.17177 -24.8787
lfingers 7.12502
lthumb 22.5491 3.82448
rfemur 0 0 0
rtibia 0
rfoot 0 0
rtoes 0
lfemur -3.54356 -6.4121 -12.9761
ltibia 20.7628
lfoot -26.121 18.4878
ltoes -53.9258
50
root -0.659855 18.6798 5.79234 2.6039 -3.43566 -1.75128
lowerback 0.402307 1.42815 0.00306232
upperback -1.63856 1.90175 -0.207647
thorax -1.8964 0.948331 -0.253233
lowerneck -11.5004 -2.61279 -0.766588
upperneck 25.0184 -4.29755 2.92719
head 9.91134 -1.73787 0.642485
rclavicle -1.71545e-014 -1.98785e-015
rhumerus -49.881 -3.59571 -87.0944
rradius 44.1164
rwrist 12.6652
rhand -10.3191 -30.3514
rfingers 7.12502
rthumb 15.6763 -59.7363
lclavicle -1.71545e-014 -1.98785e-015
lhumerus -40.6098 0.685786 90.2937
lradius 36.9445
lwrist -11.9866
lhand -3.13978 -24.8938
lfingers 7.12502
lthumb 22.5798 3.80564
rfemur 0 0 0
rtibia 0
rfoot 0 0
rtoes 0
lfemur -3.5433 -6.34943 -12.9916
ltibia 20.7757
lfoot -26.0702 18.4933
ltoes -54.0535
51
root -0.660635 18.6793 5.79263 2.60015 -3.42641 -1.76159
lowerback 0.4117 1.42345 -0.00435574
upperback -1.63306 1.89567 -0.189536
thorax -1.8969 0.945558 -0.230601
lowerneck -11.5053 -2.60378 -0.764169
upperneck 25.0068 -4.27648 2.89546
head 9.90676 -1.73154 0.633476
rclavicle 1.30732e-014 -7.15625e-015
rhumerus -49.8685 -3.57096 -87.0839
rradius 44.0938
rwrist 12.6721
rhand -10.2067 -30.4087
rfingers 7.12502
rthumb 15.7846 -59.7851
lclavicle 1.30732e-014 -7.15625e-015
lhumerus -40.6067 0.695836 90.3134
lradius 36.9537
lwrist -11.9751
lhand -3.0833 -24.9255
lfingers 7.12502
lthumb 22.634 3.76733
rfemur 0 0 0
rtibia 0
rfoot 0 0
rtoes 0
lfemur -3.53717 -6.37406 -12.9778
ltibia 20.7729
lfoot -26.0903 18.502
ltoes -54.001
52
root -0.660808 18.6786 5.79457 2.58741 -3.44277 -1.76619
lowerback 0.412222 1.4302 -0.0104039
upperback -1.62318 1.90472 -0.18168
thorax -1.88749 0.950256 -0.219211
lowerneck -11.5319 -2.59137 -0.739227
upperneck 25.0114 -4.2557 2.86117
head 9.91167 -1.72302 0.619416
rclavicle -2.1329e-014 1.59028e-014
rhumerus -49.8691 -3.59906 -87.0675
rradius 44.0699
rwrist 12.7586
rhand -10.2054 -30.3739
rfingers 7.12502
rthumb 15.7858 -59.7502
lclavicle -2.1329e-014 1.59028e-014
lhumerus -40.6108 0.692709 90.329
lradius 36.9589
lwrist -11.9273
lhand -3.05324 -24.9238
lfingers 7.12502
lthumb 22.6629 3.76552
rfemur 0 0 0
rtibia 0
rfoot 0 0
rtoes 0
lfemur -3.50194 -6.4286 -12.979
ltibia 20.7597
lfoot -26.1587 18.4718
ltoes -53.8923
53
root -0.660167 18.6788 5.79648 2.59123 -3.45226 -1.74667
lowerback 0.403787 1.44598 -0.0245076
upperback -1.62471 1.92531 -0.198404
thorax -1.88416 0.960623 -0.228646
lowerneck -11.5657 -2.5919 -0.710422
upperneck 25.0326 -4.26468 2.86476
head 9.92546 -1.72328 0.614235
rclavicle -5.61877e-015 -1.11319e-014
rhumerus -49.8986 -3.65962 -87.0676
rradius 44.0548
rwrist 12.8781
rhand -10.3687 -30.3697
rfingers 7.12502
rthumb 15.6286 -59.7584
lclavicle -5.61877e-015 -1.11319e-014
lhumerus -40.6251 0.659729 90.3247
lradius 36.9686
lwrist -11.932
lhand -3.07315 -24.9437
lfingers 7.12502
lthumb 22.6438 3.74797
rfemur 0 0 0
rtibia 0
rfoot 0 0
rtoes 0
lfemur -3.48448 -6.49516 -13.0098
ltibia 20.7436
lfoot -26.22 18.4827
ltoes -53.7955
54
root -0.659673 18.6795 5.79669 2.59516 -3.43184 -1.73252
lowerback 0.407081 1.4545 -0.0295016
upperback -1.62088 1.93642 -0.209893
thorax -1.88181 0.966159 -0.237862
lowerneck -11.569 -2.60743 -0.72428
upperneck 25.0171 -4.29004 2.89249
head 9.92211 -1.73331 0.623192
rclavicle 3.91357e-015 7.15625e-015
rhumerus -49.9259 -3.68349 -87.0727
rradius 44.0629
rwrist 12.94
rhand -10.4546 -30.3812
rfingers 7.12502
rthumb 15.5458 -59.7764
lclavicle 3.91357e-015 7.15625e-015
lhumerus -40.6158 0.617556 90.3294
lradius 36.9653
lwrist -11.9443
lhand -3.09109 -25.014
lfingers 7.12502
lthumb 22.6265 3.67977
rfemur 0 0 0
rtibia 0
rfoot 0 0
rtoes 0
lfemur -3.4864 -6.4942 -13.0235
ltibia 20.7327
lfoot -26.1711 18.5204
ltoes -53.7667
55
root -0.659825 18.679 5.79664 2.5883 -3.4225 -1.73559
lowerback 0.412035 1.46102 -0.0204548
upperback -1.6125 1.94521 -0.212355
thorax -1.87558 0.970404 -0.245608
lowerneck -11.5223 -2.6078 -0.765099
upperneck 24.9599 -4.29336 2.94853
head 9.895 -1.7337 0.64997
rclavicle -1.66047e-014 -5.1684e-015
rhumerus -49.9739 -3.67548 -87.0829
rradius 44.1111
rwrist 12.9394
rhand -10.4594 -30.4038
rfingers 7.12502
rthumb 15.5412 -59.7993
lclavicle -1.66047e-014 -5.1684e-015
lhumerus -40.6031 0.602126 90.3295
lradius 36.9547
lwrist -11.9661
lhand -3.08305 -25.0932
lfingers 7.12502
lthumb 22.6343 3.59964
rfemur 0 0 0
rtibia 0
rfoot 0 0
rtoes 0
lfemur -3.48177 -6.42548 -13.013
ltibia 20.7351
lfoot -26.1189 18.4814
ltoes -53.81
56
root -0.660235 18.6781 5.79687 2.58883 -3.41963 -1.7539
lowerback 0.420809 1.46076 -0.0078983
upperback -1.61977 1.94508 -0.208798
thorax -1.88767 0.970155 -0.249363
lowerneck -11.4829 -2.592 -0.774273
upperneck 24.9338 -4.27635 2.9818
head 9.87873 -1.72379 0.665734
rclavicle -1.2452e-014 7.55382e-015
rhumerus -50.0305 -3.67883 -87.0871
rradius 44.1528
rwrist 12.941
rhand -10.4935 -30.4208
rfingers 7.12502
rthumb 15.5084 -59.8188
lclavicle -1.2452e-014 7.55382e-015
lhumerus -40.6239 0.585078 90.321
lradius 36.9711
lwrist -11.9703
lhand -3.07991 -25.1596
lfingers 7.12502
lthumb 22.6373 3.53285
rfemur 0 0 0
rtibia 0
rfoot 0 0
rtoes 0
lfemur -3.48795 -6.40472 -12.9874
ltibia 20.7492
lfoot -26.1953 18.3815
ltoes -53.8042
